<svg xmlns="http://www.w3.org/2000/svg" width="558" height="306" viewBox="0 0 558 306" fill="none"><path d="M310.5 121.3L329.6 102.2L348.7 83.0996L386.9 121.3L370.9 167L310.5 121.3Z" fill="#00AAC4"></path><path d="M161.7 167L145.6 121.3L183.8 83.0996L203 102.2L222.1 121.3L161.7 167Z" fill="#00AAC4"></path><path d="M307.499 118.299L326.599 99.1994L345.699 80.0994L307.499 41.8994L269.299 80.0994L288.399 99.1994L307.499 118.299Z" fill="#009345"></path><path d="M266.3 83.0996L247.2 102.2L228.1 121.3L266.3 159.5L304.5 121.3L285.4 102.2L266.3 83.0996Z" fill="#00AAC4"></path><path d="M266.364 0.637467L228.109 38.8916L266.363 77.1457L304.618 38.8916L266.364 0.637467Z" fill="#4D186E"></path><path d="M225.099 41.8994L186.799 80.0994L225.099 118.299L244.199 99.1994L263.299 80.0994L225.099 41.8994Z" fill="#009345"></path><path d="M44.5996 253.599C40.6996 253.599 36.9996 252.999 33.2996 251.899C29.6996 250.799 26.3996 249.099 23.6996 246.999C20.9996 244.799 18.8996 242.399 17.4996 239.699C16.0996 236.999 15.3996 234.099 15.3996 230.999C15.3996 227.999 16.0996 225.099 17.4996 222.399C18.8996 219.599 20.9996 217.199 23.6996 215.099C26.3996 212.999 29.4996 211.399 32.9996 210.199C36.4996 208.999 40.1996 208.499 43.9996 208.499C47.8996 208.499 51.7996 209.099 55.6996 210.199C59.5996 211.399 62.8996 212.999 65.4996 215.099L65.5996 215.199L76.9996 206.099C72.8996 202.799 68.0996 200.199 62.5996 198.399C57.1996 196.599 51.3996 195.699 45.3996 195.699C39.2996 195.699 33.5996 196.599 28.1996 198.399C22.7996 200.199 17.9996 202.799 13.7996 206.099C9.49959 209.399 6.1996 213.199 3.9996 217.499C1.6996 221.799 0.599609 226.299 0.599609 230.999C0.599609 235.799 1.6996 240.399 3.9996 244.699C6.2996 248.999 9.59959 252.799 13.7996 256.099C17.8996 259.399 22.6996 261.999 28.1996 263.799C33.5996 265.599 39.3996 266.499 45.3996 266.499C51.4996 266.499 57.2996 265.599 62.7996 263.699V248.899C60.6996 250.199 58.4996 251.199 55.9996 251.899C52.2996 252.999 48.4996 253.599 44.5996 253.599Z" fill="#4D186E"></path><path d="M79.0992 266.599H65.6992V256.899V245.899V243.799H45.6992V230.999H79.0992V266.599Z" fill="#009345"></path><path d="M152.8 233.7C155.4 229.9 156.7 225.8 156.7 221.4C156.7 216.7 155.2 212.4 152.3 208.5C149.3 204.6 145.4 201.4 140.3 199.1C135.3 196.8 129.8 195.6 123.8 195.6H88.4004V266.3H104.6V247.4H123.8C124.9 247.4 126.4 247.3 128.3 247.2C129.9 251.3 132.1 254.8 134.9 257.6C140.1 262.8 146.6 265.7 154.6 266.3V252.1C151.1 251.3 148 249.6 145.5 247.1C144.6 246.2 143.6 244.8 142.3 242.9C146.7 240.5 150.2 237.5 152.8 233.7ZM138.2 228C136.7 230 134.7 231.6 132.1 232.8C129.6 234 126.8 234.6 123.7 234.6H104.5V208.4H123.7C126.8 208.4 129.6 209 132.1 210.2C134.6 211.4 136.7 213 138.2 215C139.7 217 140.4 219.2 140.4 221.5C140.4 223.8 139.7 226 138.2 228Z" fill="#4D186E"></path><path d="M236.8 206C232.7 202.7 227.9 200.1 222.4 198.3C217 196.5 211.2 195.6 205.2 195.6C199.2 195.6 193.4 196.5 188 198.3C182.6 200.1 177.8 202.7 173.6 206C169.3 209.3 166 213 163.8 217.4C161.5 221.7 160.4 226.2 160.4 230.9C160.4 235.7 161.5 240.3 163.8 244.6C166.1 248.9 169.4 252.7 173.6 256C177.7 259.3 182.5 261.9 188 263.7C193.4 265.5 199.2 266.4 205.2 266.4C211.2 266.4 217 265.5 222.4 263.7C227.8 261.9 232.6 259.3 236.8 256C241.1 252.7 244.4 248.9 246.6 244.5C248.9 240.2 250 235.7 250 230.9C250 226.2 248.9 221.7 246.6 217.5C244.4 213.2 241.1 209.4 236.8 206ZM230 242.3C227.5 245.8 224 248.5 219.6 250.6C215.2 252.6 210.4 253.7 205.3 253.7C200.1 253.7 195.4 252.7 191 250.6C186.6 248.6 183.1 245.8 180.6 242.3C178.1 238.8 176.7 235 176.7 230.9C176.7 226.8 178 223.1 180.6 219.6C183.2 216.1 186.7 213.4 191 211.4C195.4 209.4 200.1 208.4 205.3 208.4C210.5 208.4 215.2 209.4 219.6 211.4C224 213.4 227.4 216.1 230 219.6C232.5 223.1 233.8 226.8 233.8 230.9C233.8 235 232.5 238.9 230 242.3Z" fill="#4D186E"></path><path d="M367.4 236.799H394.3V224.799H367.4V207.399H396.2V195.699H352.4V266.299H396.2V254.499H367.4V236.799Z" fill="#4D186E"></path><path d="M441.6 230.499L465.9 195.699H448.6L432.8 218.599L417 195.699H399.6L424.2 230.799L399.7 266.299H416.8L432.8 243.299L448.7 266.299H465.8L441.3 230.799L441.6 230.499Z" fill="#4D186E"></path><path d="M532 266.299L507.6 230.799L507.8 230.499L532.1 195.699H514.9L499 218.599L483.2 195.699H465.9L490.4 230.799L466 266.299H483L499 243.299L515 266.299H532Z" fill="#4D186E"></path><path d="M332.5 196.1L318.7 248.1L305 196.1H290.5L276.7 248.1L263 196.1H249.1L267.5 265.9H286L297.7 221.4L309.5 265.9H327.9L346.4 196.1H332.5Z" fill="#4D186E"></path><path d="M112.299 290.9H106.699V288.3H120.999V290.9H115.399V305.1H112.299V290.9V290.9Z" fill="#00AAC4"></path><path d="M136.498 302.5V305.1H123.898V288.3H136.198V290.9H126.998V295.3H135.098V297.9H126.998V302.5H136.498V302.5Z" fill="#00AAC4"></path><path d="M143.5 304.2C142.1 303.5 141.1 302.4 140.3 301.1C139.5 299.8 139.1 298.3 139.1 296.7C139.1 295.1 139.5 293.6 140.3 292.3C141.1 291 142.2 290 143.5 289.2C144.9 288.5 146.4 288.1 148.1 288.1C149.5 288.1 150.7 288.3 151.9 288.8C153 289.3 154 290 154.8 290.9L152.8 292.8C151.6 291.5 150.1 290.8 148.3 290.8C147.1 290.8 146.1 291.1 145.2 291.6C144.3 292.1 143.6 292.8 143.1 293.7C142.6 294.6 142.3 295.6 142.3 296.8C142.3 297.9 142.6 299 143.1 299.9C143.6 300.8 144.3 301.5 145.2 302C146.1 302.5 147.1 302.8 148.3 302.8C150.1 302.8 151.6 302.1 152.8 300.8L154.8 302.7C154 303.6 153.1 304.3 151.9 304.8C150.8 305.3 149.5 305.5 148.1 305.5C146.4 305.3 144.9 305 143.5 304.2Z" fill="#00AAC4"></path><path d="M173.199 288.3V305.1H170.099V297.9H161.399V305.1H158.299V288.3H161.399V295.2H170.099V288.3H173.199Z" fill="#00AAC4"></path><path d="M196.098 289C197.198 289.5 197.998 290.2 198.598 291.1C199.198 292 199.498 293.1 199.498 294.3C199.498 295.5 199.198 296.6 198.598 297.5C197.998 298.4 197.198 299.1 196.098 299.6C194.998 300.1 193.798 300.3 192.298 300.3H188.498V305.2H185.398V288.4H192.298C193.698 288.3 194.998 288.5 196.098 289ZM195.198 296.7C195.898 296.1 196.298 295.3 196.298 294.2C196.298 293.1 195.898 292.3 195.198 291.7C194.498 291.1 193.498 290.8 192.098 290.8H188.398V297.5H192.098C193.498 297.6 194.498 297.3 195.198 296.7Z" fill="#00AAC4"></path><path d="M206.5 304.2C205.1 303.5 204 302.4 203.3 301.1C202.5 299.8 202.1 298.3 202.1 296.7C202.1 295.1 202.5 293.6 203.3 292.3C204.1 291 205.2 289.9 206.5 289.2C207.9 288.5 209.4 288.1 211.1 288.1C212.8 288.1 214.4 288.5 215.7 289.2C217.1 289.9 218.2 291 218.9 292.3C219.7 293.6 220.1 295.1 220.1 296.7C220.1 298.3 219.7 299.8 218.9 301.1C218.1 302.4 217 303.4 215.7 304.2C214.3 304.9 212.8 305.3 211.1 305.3C209.4 305.3 207.9 305 206.5 304.2ZM214.1 301.8C215 301.3 215.7 300.6 216.2 299.7C216.7 298.8 217 297.8 217 296.7C217 295.6 216.7 294.6 216.2 293.7C215.7 292.8 215 292.1 214.1 291.6C213.2 291.1 212.2 290.8 211.1 290.8C210 290.8 209 291.1 208.1 291.6C207.2 292.1 206.5 292.8 206 293.7C205.5 294.6 205.2 295.6 205.2 296.7C205.2 297.8 205.5 298.8 206 299.7C206.5 300.6 207.2 301.3 208.1 301.8C209 302.3 210 302.6 211.1 302.6C212.2 302.6 213.2 302.3 214.1 301.8Z" fill="#00AAC4"></path><path d="M247.999 288.3L242.399 305.1H239.099L234.899 292.7L230.699 305.1H227.399L221.799 288.3H224.999L229.199 301.1L233.499 288.3H236.399L240.699 301.1L244.999 288.3H247.999Z" fill="#00AAC4"></path><path d="M263.6 302.5V305.1H251V288.3H263.3V290.9H254.1V295.3H262.2V297.9H254.1V302.5H263.6V302.5Z" fill="#00AAC4"></path><path d="M278.599 305.1L275.199 300.2C275.099 300.2 274.799 300.2 274.599 300.2H270.799V305.1H267.699V288.3H274.599C276.099 288.3 277.299 288.5 278.399 289C279.499 289.5 280.299 290.2 280.899 291.1C281.499 292 281.799 293.1 281.799 294.3C281.799 295.6 281.499 296.7 280.899 297.6C280.299 298.5 279.399 299.2 278.199 299.6L282.099 305.1H278.599V305.1ZM277.499 291.8C276.799 291.2 275.799 290.9 274.399 290.9H270.699V297.6H274.399C275.799 297.6 276.799 297.3 277.499 296.7C278.199 296.1 278.599 295.3 278.599 294.2C278.499 293.2 278.199 292.4 277.499 291.8Z" fill="#00AAC4"></path><path d="M287.099 304.8C285.899 304.4 284.899 303.9 284.199 303.3L285.299 300.9C285.999 301.4 286.799 301.9 287.799 302.2C288.799 302.5 289.799 302.7 290.799 302.7C291.999 302.7 292.999 302.5 293.599 302.1C294.199 301.7 294.499 301.2 294.499 300.5C294.499 300 294.299 299.6 293.999 299.3C293.699 299 293.199 298.7 292.699 298.6C292.199 298.4 291.499 298.2 290.499 298C289.199 297.7 288.199 297.4 287.399 297.1C286.599 296.8 285.899 296.3 285.399 295.7C284.799 295.1 284.499 294.2 284.499 293.1C284.499 292.2 284.799 291.3 285.299 290.6C285.799 289.8 286.599 289.2 287.599 288.8C288.599 288.4 289.899 288.1 291.299 288.1C292.299 288.1 293.299 288.2 294.299 288.5C295.299 288.8 296.099 289.1 296.899 289.6L295.899 292C295.199 291.6 294.399 291.2 293.599 291C292.799 290.8 291.999 290.7 291.299 290.7C290.099 290.7 289.199 290.9 288.499 291.3C287.799 291.7 287.599 292.3 287.599 293C287.599 293.5 287.799 293.9 288.099 294.2C288.399 294.5 288.899 294.7 289.399 294.9C289.899 295.1 290.599 295.3 291.599 295.5C292.799 295.8 293.899 296.1 294.699 296.4C295.499 296.7 296.199 297.2 296.799 297.8C297.399 298.4 297.699 299.3 297.699 300.4C297.699 301.3 297.399 302.2 296.899 302.9C296.399 303.6 295.599 304.3 294.599 304.7C293.599 305.1 292.299 305.4 290.899 305.4C289.599 305.3 288.299 305.1 287.099 304.8Z" fill="#00AAC4"></path><path d="M319.799 296.499H322.799V303.199C321.899 303.899 320.899 304.399 319.799 304.799C318.599 305.199 317.499 305.399 316.199 305.399C314.499 305.399 312.899 304.999 311.599 304.299C310.199 303.599 309.099 302.499 308.399 301.199C307.599 299.899 307.199 298.399 307.199 296.799C307.199 295.199 307.599 293.699 308.399 292.399C309.199 291.099 310.299 290.099 311.699 289.299C313.099 288.599 314.599 288.199 316.399 288.199C317.799 288.199 319.099 288.399 320.199 288.899C321.399 289.399 322.299 289.999 323.099 290.899L321.099 292.799C319.799 291.499 318.299 290.899 316.499 290.899C315.299 290.899 314.299 291.099 313.299 291.599C312.399 292.099 311.699 292.799 311.099 293.699C310.599 294.599 310.299 295.599 310.299 296.799C310.299 297.899 310.599 298.899 311.099 299.799C311.599 300.699 312.299 301.399 313.299 301.899C314.199 302.399 315.299 302.699 316.399 302.699C317.699 302.699 318.899 302.399 319.899 301.799V296.499H319.799Z" fill="#00AAC4"></path><path d="M338.4 305.1L335 300.2C334.9 300.2 334.6 300.2 334.4 300.2H330.6V305.1H327.5V288.3H334.4C335.9 288.3 337.1 288.5 338.2 289C339.3 289.5 340.1 290.2 340.7 291.1C341.3 292 341.6 293.1 341.6 294.3C341.6 295.6 341.3 296.7 340.7 297.6C340.1 298.5 339.2 299.2 338 299.6L341.9 305.1H338.4V305.1ZM337.2 291.8C336.5 291.2 335.5 290.9 334.1 290.9H330.4V297.6H334.1C335.5 297.6 336.5 297.3 337.2 296.7C337.9 296.1 338.3 295.3 338.3 294.2C338.3 293.2 337.9 292.4 337.2 291.8Z" fill="#00AAC4"></path><path d="M348.599 304.2C347.199 303.5 346.099 302.4 345.399 301.1C344.599 299.8 344.199 298.3 344.199 296.7C344.199 295.1 344.599 293.6 345.399 292.3C346.199 291 347.299 289.9 348.599 289.2C349.999 288.5 351.499 288.1 353.199 288.1C354.899 288.1 356.499 288.5 357.799 289.2C359.199 289.9 360.299 291 360.999 292.3C361.799 293.6 362.199 295.1 362.199 296.7C362.199 298.3 361.799 299.8 360.999 301.1C360.199 302.4 359.099 303.4 357.799 304.2C356.399 304.9 354.899 305.3 353.199 305.3C351.499 305.3 349.999 305 348.599 304.2ZM356.299 301.8C357.199 301.3 357.899 300.6 358.399 299.7C358.899 298.8 359.199 297.8 359.199 296.7C359.199 295.6 358.899 294.6 358.399 293.7C357.899 292.8 357.199 292.1 356.299 291.6C355.399 291.1 354.399 290.8 353.299 290.8C352.199 290.8 351.199 291.1 350.299 291.6C349.399 292.1 348.699 292.8 348.199 293.7C347.699 294.6 347.399 295.6 347.399 296.7C347.399 297.8 347.699 298.8 348.199 299.7C348.699 300.6 349.399 301.3 350.299 301.8C351.199 302.3 352.199 302.6 353.299 302.6C354.399 302.6 355.399 302.3 356.299 301.8Z" fill="#00AAC4"></path><path d="M390.098 288.3L384.498 305.1H381.198L376.998 292.7L372.798 305.1H369.498L363.898 288.3H367.098L371.298 301.1L375.598 288.3H378.498L382.798 301.1L387.098 288.3H390.098Z" fill="#00AAC4"></path><path d="M396.7 290.9H391.1V288.3H405.4V290.9H399.8V305.1H396.7V290.9V290.9Z" fill="#00AAC4"></path><path d="M423.199 288.3V305.1H419.999V297.9H411.299V305.1H408.199V288.3H411.299V295.2H419.999V288.3H423.199Z" fill="#00AAC4"></path><path d="M546.6 195.7C552.7 195.7 557.6 200.7 557.6 206.9C557.6 213.2 552.7 218.1 546.6 218.1C540.5 218.1 535.5 213.2 535.5 206.9C535.5 200.6 540.4 195.7 546.6 195.7ZM546.5 197.4C541.6 197.4 537.6 201.6 537.6 206.8C537.6 212.1 541.6 216.3 546.6 216.3C551.6 216.3 555.5 212.1 555.5 206.9C555.5 201.6 551.5 197.4 546.5 197.4ZM544.4 213.1H542.4V200.6C543.4 200.5 544.4 200.3 545.9 200.3C547.8 200.3 549 200.7 549.8 201.2C550.6 201.7 550.9 202.6 550.9 203.8C550.9 205.4 549.8 206.4 548.5 206.8V206.9C549.6 207.1 550.3 208.1 550.6 209.9C550.9 211.8 551.2 212.6 551.4 213H549.3C549 212.6 548.7 211.5 548.5 209.8C548.2 208.2 547.4 207.6 545.8 207.6H544.4V213.1ZM544.4 206.2H545.8C547.4 206.2 548.8 205.6 548.8 204.1C548.8 203 548 201.9 545.8 201.9C545.2 201.9 544.7 201.9 544.4 202V206.2Z" fill="#4D186E"></path></svg>