<?xml version="1.0" encoding="utf-8"?>
<!-- Generator: Adobe Illustrator 19.0.0, SVG Export Plug-In . SVG Version: 6.00 Build 0)  -->
<svg version="1.1" id="layer" xmlns="http://www.w3.org/2000/svg" xmlns:xlink="http://www.w3.org/1999/xlink" x="0px" y="0px"
	 viewBox="-153 -46 652 652" style="enable-background:new -153 -46 652 652;" xml:space="preserve">
<style type="text/css">
	.st0{fill:#000E9C;}
</style>
<path class="st0" d="M-68.9,323.3h-44c-20.8-25.5-23.9-61.1-7.6-89.8l28.5,49.6l31.5-54.8h46.3L-68.9,323.3L-68.9,323.3z
	 M16.4,233.7c15.9,28.6,12.9,64-7.5,89.6h-43.2l13.3-23.5h-17.6l20.7-36.5h17.7L16.4,233.7z M60.3,277.2c0,20.8,9.5,30.8,25.9,30.8
	c16.4,0,25.9-9.9,25.9-30.8c0-20.9-9.5-30.9-25.9-30.9C69.8,246.3,60.3,256.2,60.3,277.2 M52.8,277.2c0-25.3,12.6-37.5,33.3-37.5
	c20.7,0,33.3,12.2,33.3,37.5c0,25.1-12.6,37.4-33.3,37.4C65.4,314.6,52.8,302.3,52.8,277.2 M152.3,300.1l-21.7-57.5
	c-0.3-0.9-1.4-2.4-3.4-2.4c-2,0-3.6,1.6-3.6,3.6c0,0.6,0.2,1.3,0.3,1.6l25,65.9c0.5,1.5,2,2.5,3.4,2.5s2.9-1,3.4-2.5l25-65.9
	c0.1-0.3,0.3-1,0.3-1.6c0-2-1.6-3.6-3.6-3.6c-2,0-3.1,1.5-3.4,2.4L152.3,300.1z M233.4,279.5v30.8c0,1.9,1.6,3.6,3.6,3.6
	c2,0,3.6-1.7,3.6-3.6v-66.4c0-1.9-1.6-3.6-3.6-3.6c-2,0-3.6,1.7-3.6,3.6v29h-37.2v-29c0-1.9-1.6-3.6-3.6-3.6c-2,0-3.6,1.7-3.6,3.6
	v66.4c0,1.9,1.6,3.6,3.6,3.6c2,0,3.6-1.7,3.6-3.6v-30.8H233.4z M275,263.1c-13.8,0-22,8.1-22,25.6c0,17.5,8.2,25.8,22,25.8
	c8.7,0,13.8-3.8,16.1-5.8c1.1-1,1.4-1.7,1.4-2.7c0-1.7-1.4-3.1-3.1-3.1c-0.8,0-1.3,0.2-2,0.7c-2.5,1.8-6.2,4.6-12.4,4.6
	c-9.8,0-15.1-6.2-15.1-19.6c0-13.1,5.2-19.5,15.1-19.5c7.1,0,9.9,3.2,11.5,5c0.7,0.9,1.5,1.3,2.6,1.3c1.7,0,3.1-1.3,3.1-3.1
	c0-0.7-0.2-1.3-0.8-2C289.7,268.1,284.5,263.1,275,263.1 M309.1,240.4c0-1.8-1.5-3.4-3.4-3.4c-1.8,0-3.4,1.6-3.4,3.4v61
	c0,8.2,4,12.5,11.1,12.5c1.7,0,3.2-1.4,3.2-3.2c0-1.8-1.5-3.2-3.2-3.2c-2.9,0-4.3-1.8-4.3-6.1V240.4 M360.3,288.7
	c0-13.5-5.7-19.4-15.5-19.4c-9.8,0-15.5,6-15.5,19.4c0,13.7,5.7,19.6,15.5,19.6C354.7,308.3,360.3,302.4,360.3,288.7 M367.3,288.7
	c0,17.5-8.5,25.8-22.4,25.8c-13.8,0-22.4-8.2-22.4-25.8c0-17.5,8.7-25.6,22.4-25.6C358.7,263.1,367.3,271.2,367.3,288.7
	 M383.8,267.1c0-1.9-1.6-3.4-3.4-3.4c-1.9,0-3.4,1.5-3.4,3.4V295c0,10.2,3.4,19.4,19.9,19.4c16.6,0,19.9-9.3,19.9-19.4v-27.9
	c0-1.9-1.5-3.4-3.3-3.4c-1.9,0-3.5,1.5-3.5,3.4V295c0,6.9-2.2,12.9-13,12.9c-10.8,0-13-6-13-12.9V267.1 M462.3,278.7
	c0,0-4.1-9.4-14.1-9.4c-9.7,0-15.1,6.3-15.1,19.4c0,13.4,5.2,19.6,15.1,19.6c8.2,0,14.1-4.7,14.1-14.9V278.7z M462.3,270v-29.6
	c0-1.9,1.5-3.4,3.4-3.4c1.9,0,3.4,1.5,3.4,3.4v53c0,14.1-8.8,21.1-20.9,21.1c-13.8,0-21.9-8.2-21.9-25.8c0-17.5,7.7-25.6,21.5-25.6
	C454.6,263.1,459.8,266.6,462.3,270"/>
</svg>
